<?xml version="1.0" encoding="utf-8"?>
<!-- Generator: Adobe Illustrator 16.0.3, SVG Export Plug-In . SVG Version: 6.00 Build 0)  -->
<!DOCTYPE svg PUBLIC "-//W3C//DTD SVG 1.1//EN" "http://www.w3.org/Graphics/SVG/1.1/DTD/svg11.dtd">
<svg version="1.1" id="Calque_1" xmlns="http://www.w3.org/2000/svg" xmlns:xlink="http://www.w3.org/1999/xlink" x="0px" y="0px"
	 width="1000px" height="226px" viewBox="0 0 1000 226" enable-background="new 0 0 1000 226" xml:space="preserve">
<g>
	<g>
		<path fill="#C6C6C5" d="M727.231,70.412c-3,0-5.34-0.847-7.021-2.554c-1.677-1.716-2.524-4.411-2.524-8.095V41.646h-3.698v-4.569
			h3.698v-9.391h5.509v9.391h10.122v4.569h-10.122v15.538c0,1.659,0.025,2.94,0.089,3.832c0.06,0.899,0.28,1.738,0.665,2.52
			c0.344,0.683,0.872,1.194,1.617,1.541c0.739,0.343,1.742,0.504,3.01,0.504c0.891,0,1.765-0.129,2.604-0.394
			c0.836-0.26,1.442-0.477,1.813-0.654h0.323v4.947c-1.036,0.287-2.085,0.518-3.141,0.682
			C729.11,70.324,728.126,70.412,727.231,70.412z"/>
		<path fill="#C6C6C5" d="M763.063,69.767h-5.495V51.159c0-1.506-0.075-2.903-0.222-4.197c-0.14-1.303-0.421-2.345-0.831-3.122
			c-0.448-0.815-1.075-1.431-1.878-1.827c-0.799-0.402-1.89-0.599-3.27-0.599c-1.371,0-2.777,0.368-4.235,1.09
			c-1.452,0.735-2.868,1.69-4.257,2.862v24.401h-5.497V24.232h5.497v16.474c1.641-1.462,3.264-2.584,4.857-3.369
			c1.601-0.78,3.29-1.164,5.063-1.164c3.223,0,5.736,1.054,7.551,3.169c1.808,2.126,2.716,5.192,2.716,9.214V69.767z"/>
		<path fill="#C6C6C5" d="M784.979,70.53c-5.203,0-9.242-1.471-12.127-4.401c-2.875-2.94-4.313-7.109-4.313-12.517
			c0-5.328,1.398-9.57,4.184-12.717c2.785-3.149,6.433-4.722,10.943-4.722c2.027,0,3.823,0.29,5.381,0.877
			c1.563,0.586,2.928,1.5,4.095,2.756c1.173,1.246,2.065,2.767,2.688,4.578c0.623,1.8,0.936,4.011,0.936,6.625v2.987h-22.641
			c0,3.8,0.961,6.712,2.868,8.723c1.915,2.003,4.552,3.013,7.933,3.013c1.199,0,2.385-0.136,3.555-0.411
			c1.162-0.271,2.204-0.626,3.142-1.049c0.994-0.449,1.834-0.886,2.515-1.307c0.678-0.414,1.248-0.812,1.693-1.186h0.323v5.997
			c-0.64,0.262-1.437,0.576-2.399,0.955c-0.954,0.379-1.813,0.684-2.568,0.892c-1.076,0.295-2.043,0.517-2.916,0.674
			C787.4,70.447,786.308,70.53,784.979,70.53z M791.42,49.784c-0.044-1.486-0.214-2.769-0.534-3.831
			c-0.313-1.076-0.76-1.99-1.342-2.728c-0.647-0.816-1.464-1.444-2.474-1.875c-1.001-0.427-2.247-0.645-3.726-0.645
			c-1.465,0-2.712,0.218-3.734,0.658c-1.021,0.446-1.956,1.086-2.796,1.919c-0.813,0.857-1.442,1.81-1.869,2.854
			c-0.432,1.044-0.698,2.259-0.82,3.647H791.42z"/>
		<path fill="#C6C6C5" d="M848.453,52.563c0,5.438-1.294,9.778-3.905,13.003c-2.598,3.234-5.89,4.845-9.87,4.845
			c-1.619,0-3.052-0.186-4.299-0.556c-1.253-0.367-2.523-0.948-3.835-1.726v13.702h-5.495V37.077h5.495V40.5
			c1.362-1.225,2.892-2.255,4.549-3.082c1.673-0.828,3.484-1.245,5.461-1.245c3.74,0,6.662,1.479,8.765,4.45
			C847.412,43.587,848.453,47.566,848.453,52.563z M842.789,53.177c0-3.729-0.601-6.617-1.795-8.683
			c-1.184-2.051-3.117-3.08-5.789-3.08c-1.563,0-3.066,0.341-4.526,1.036c-1.449,0.693-2.823,1.58-4.135,2.678v18.528
			c1.446,0.698,2.677,1.176,3.701,1.434c1.03,0.247,2.199,0.383,3.526,0.383c2.845,0,5.064-1.05,6.644-3.131
			C841.993,60.252,842.789,57.199,842.789,53.177z"/>
		<path fill="#C6C6C5" d="M871.48,42.993h-0.293c-0.41-0.12-0.841-0.188-1.301-0.215c-0.456-0.037-1.014-0.05-1.655-0.05
			c-1.477,0-2.948,0.322-4.417,0.962c-1.464,0.645-2.844,1.601-4.154,2.877v23.199h-5.497v-32.69h5.497v4.862
			c2.011-1.78,3.765-3.034,5.245-3.764c1.503-0.729,2.943-1.099,4.352-1.099c0.57,0,0.992,0.013,1.27,0.042
			c0.29,0.03,0.604,0.074,0.954,0.134V42.993z"/>
		<path fill="#C6C6C5" d="M902.336,53.437c0,5.508-1.321,9.752-3.972,12.745c-2.656,2.999-6.183,4.5-10.594,4.5
			c-4.538,0-8.109-1.558-10.716-4.643c-2.612-3.086-3.901-7.292-3.901-12.602c0-5.465,1.332-9.708,4.018-12.73
			c2.687-3.022,6.221-4.533,10.6-4.533c4.411,0,7.938,1.505,10.594,4.52C901.015,43.703,902.336,47.955,902.336,53.437z
			 M896.666,53.437c0-4.234-0.765-7.374-2.306-9.433c-1.54-2.057-3.741-3.094-6.59-3.094c-2.861,0-5.075,1.037-6.621,3.094
			c-1.556,2.059-2.332,5.199-2.332,9.433c0,4.105,0.776,7.212,2.332,9.321c1.546,2.124,3.76,3.178,6.621,3.178
			c2.828,0,5.023-1.036,6.576-3.121C895.894,60.743,896.666,57.621,896.666,53.437z"/>
		<path fill="#C6C6C5" d="M916.907,70.707c0,3.723-0.992,6.565-2.987,8.519c-2.005,1.95-4.755,2.924-8.264,2.924
			c-0.608,0-1.288-0.031-2.037-0.089c-0.752-0.051-1.493-0.149-2.233-0.258v-4.919h0.318c0.43,0.096,0.906,0.19,1.42,0.269
			c0.515,0.098,1.003,0.136,1.474,0.136c1.465,0,2.673-0.175,3.617-0.544c0.942-0.352,1.654-0.924,2.119-1.701
			c0.432-0.711,0.717-1.594,0.859-2.665c0.151-1.078,0.22-2.381,0.22-3.916V41.646h-5.905v-4.569h11.399V70.707z M916.942,31.612
			h-6.262v-5.71h6.262V31.612z"/>
		<path fill="#C6C6C5" d="M939.06,70.53c-5.215,0-9.246-1.471-12.13-4.401c-2.88-2.94-4.311-7.109-4.311-12.517
			c0-5.328,1.389-9.57,4.177-12.717c2.795-3.149,6.437-4.722,10.948-4.722c2.021,0,3.822,0.29,5.38,0.877
			c1.564,0.586,2.934,1.5,4.101,2.756c1.168,1.246,2.059,2.767,2.685,4.578c0.621,1.8,0.935,4.011,0.935,6.625v2.987h-22.64
			c0,3.8,0.955,6.712,2.871,8.723c1.912,2.003,4.549,3.013,7.922,3.013c1.205,0,2.393-0.136,3.557-0.411
			c1.158-0.271,2.205-0.626,3.144-1.049c0.996-0.449,1.838-0.886,2.52-1.307c0.68-0.414,1.246-0.812,1.692-1.186h0.321v5.997
			c-0.637,0.262-1.439,0.576-2.396,0.955c-0.96,0.379-1.813,0.684-2.568,0.892c-1.077,0.295-2.046,0.517-2.914,0.674
			C941.476,70.447,940.385,70.53,939.06,70.53z M945.497,49.784c-0.039-1.486-0.217-2.769-0.53-3.831
			c-0.315-1.076-0.765-1.99-1.346-2.728c-0.646-0.816-1.467-1.444-2.47-1.875c-1.002-0.427-2.25-0.645-3.735-0.645
			c-1.459,0-2.704,0.218-3.727,0.658c-1.023,0.446-1.953,1.086-2.792,1.919c-0.816,0.857-1.443,1.81-1.877,2.854
			c-0.428,1.044-0.69,2.259-0.816,3.647H945.497z"/>
		<path fill="#C6C6C5" d="M969.395,70.504c-2.239,0-4.303-0.348-6.172-1.045c-1.873-0.684-3.479-1.734-4.829-3.143
			c-1.344-1.403-2.395-3.174-3.128-5.314c-0.742-2.134-1.11-4.648-1.11-7.533c0-2.868,0.383-5.349,1.152-7.436
			c0.77-2.087,1.796-3.845,3.086-5.27c1.288-1.422,2.895-2.52,4.815-3.289c1.916-0.773,3.981-1.16,6.186-1.16
			c1.793,0,3.525,0.259,5.195,0.761c1.667,0.505,3.148,1.091,4.46,1.759v6.176h-0.319c-0.392-0.334-0.896-0.717-1.514-1.144
			c-0.614-0.425-1.356-0.865-2.234-1.316c-0.764-0.388-1.663-0.729-2.691-1.029c-1.028-0.285-2.031-0.436-2.99-0.436
			c-2.844,0-5.124,1.078-6.854,3.236c-1.729,2.154-2.587,5.204-2.587,9.148c0,3.865,0.831,6.871,2.5,9.032
			c1.667,2.155,3.983,3.231,6.94,3.231c1.802,0,3.507-0.368,5.123-1.121c1.62-0.737,3.058-1.685,4.307-2.861h0.319v6.178
			c-0.543,0.249-1.229,0.556-2.053,0.923c-0.814,0.356-1.557,0.627-2.218,0.797c-0.936,0.282-1.776,0.488-2.516,0.636
			C971.522,70.434,970.561,70.504,969.395,70.504z"/>
		<path fill="#C6C6C5" d="M993.94,70.412c-2.999,0-5.337-0.847-7.021-2.554c-1.676-1.716-2.523-4.411-2.523-8.095V41.646h-3.708
			v-4.569h3.708v-9.391h5.507v9.391h10.116v4.569h-10.116v15.538c0,1.659,0.025,2.94,0.088,3.832
			c0.061,0.899,0.279,1.738,0.666,2.52c0.337,0.683,0.874,1.194,1.621,1.541c0.729,0.343,1.737,0.504,3.007,0.504
			c0.894,0,1.765-0.129,2.606-0.394c0.835-0.26,1.438-0.477,1.806-0.654h0.322v4.947c-1.026,0.287-2.075,0.518-3.141,0.682
			C995.818,70.324,994.837,70.412,993.94,70.412z"/>
		<path fill="#C6C6C5" d="M694.609,141.702v-18.909c0-1.507-0.056-2.896-0.171-4.17c-0.118-1.282-0.361-2.28-0.729-3.001
			c-0.401-0.781-0.947-1.362-1.672-1.729c-0.721-0.369-1.69-0.559-2.919-0.559c-1.134,0-2.346,0.352-3.646,1.044
			c-1.302,0.688-2.637,1.695-4.025,2.998c0.017,0.333,0.044,0.729,0.074,1.183c0.032,0.459,0.049,1.003,0.049,1.632v21.512h-5.503
			v-18.909c0-1.507-0.061-2.896-0.181-4.17c-0.11-1.282-0.361-2.28-0.728-3.001c-0.388-0.781-0.941-1.362-1.671-1.729
			c-0.724-0.369-1.692-0.559-2.925-0.559c-1.187,0-2.436,0.375-3.746,1.119c-1.298,0.733-2.566,1.688-3.801,2.834v24.415h-5.502
			v-32.698h5.502v3.637c1.444-1.449,2.877-2.566,4.285-3.355c1.417-0.793,2.979-1.187,4.668-1.187c1.928,0,3.643,0.435,5.137,1.323
			c1.486,0.872,2.63,2.317,3.413,4.328c1.649-1.86,3.269-3.264,4.85-4.221c1.58-0.953,3.297-1.43,5.143-1.43
			c1.413,0,2.684,0.219,3.837,0.654c1.15,0.446,2.153,1.146,3.02,2.127c0.882,0.997,1.551,2.236,2.031,3.714
			c0.475,1.484,0.715,3.345,0.715,5.596v21.512H694.609z"/>
		<path fill="#C6C6C5" d="M726.09,138.212c-0.449,0.334-1.05,0.799-1.798,1.391c-0.76,0.598-1.48,1.068-2.182,1.415
			c-0.979,0.518-1.915,0.901-2.83,1.176c-0.899,0.271-2.168,0.407-3.813,0.407c-1.347,0-2.623-0.245-3.831-0.757
			c-1.207-0.508-2.271-1.219-3.188-2.133c-0.876-0.898-1.579-2.013-2.111-3.326c-0.524-1.322-0.791-2.707-0.791-4.176
			c0-2.258,0.485-4.182,1.431-5.776c0.96-1.592,2.475-2.85,4.539-3.786c1.834-0.842,3.997-1.421,6.493-1.749
			c2.5-0.311,5.191-0.561,8.08-0.707v-1.061c0-1.284-0.199-2.321-0.595-3.109c-0.387-0.794-0.925-1.408-1.628-1.836
			c-0.706-0.44-1.557-0.743-2.582-0.892c-1.009-0.141-2.056-0.221-3.127-0.221c-1.267,0-2.759,0.195-4.479,0.572
			c-1.717,0.382-3.43,0.93-5.148,1.65h-0.317v-5.585c1.014-0.288,2.466-0.615,4.359-0.969c1.889-0.346,3.768-0.526,5.61-0.526
			c2.243,0,4.138,0.18,5.684,0.526c1.541,0.354,2.926,0.985,4.152,1.908c1.189,0.901,2.076,2.059,2.66,3.474
			c0.587,1.433,0.882,3.165,0.882,5.211v22.369h-5.472V138.212z M726.09,133.645v-9.063c-1.311,0.105-2.964,0.273-4.958,0.475
			c-1.999,0.207-3.614,0.492-4.844,0.864c-1.46,0.45-2.672,1.14-3.627,2.066c-0.962,0.929-1.431,2.222-1.431,3.877
			c0,1.875,0.515,3.288,1.578,4.241c1.053,0.964,2.591,1.438,4.621,1.438c1.738,0,3.304-0.381,4.708-1.133
			C723.542,135.663,724.855,134.741,726.09,133.645z"/>
		<path fill="#C6C6C5" d="M764.964,141.702h-5.498v-18.624c0-1.499-0.072-2.902-0.219-4.197c-0.146-1.291-0.422-2.329-0.831-3.122
			c-0.448-0.809-1.07-1.414-1.874-1.826c-0.798-0.396-1.894-0.599-3.277-0.599c-1.37,0-2.771,0.364-4.221,1.104
			c-1.46,0.721-2.878,1.676-4.27,2.849v24.415h-5.492v-32.698h5.492v3.637c1.644-1.468,3.265-2.592,4.859-3.368
			c1.6-0.788,3.291-1.174,5.063-1.174c3.223,0,5.736,1.062,7.548,3.177c1.82,2.11,2.719,5.179,2.719,9.199V141.702z"/>
		<path fill="#C6C6C5" d="M790.946,138.212c-0.447,0.334-1.048,0.799-1.797,1.391c-0.751,0.598-1.471,1.068-2.18,1.415
			c-0.972,0.518-1.916,0.901-2.818,1.176c-0.907,0.271-2.183,0.407-3.824,0.407c-1.343,0-2.623-0.245-3.828-0.757
			c-1.213-0.508-2.27-1.219-3.189-2.133c-0.879-0.898-1.58-2.013-2.113-3.326c-0.518-1.322-0.79-2.707-0.79-4.176
			c0-2.258,0.484-4.182,1.438-5.776c0.951-1.592,2.462-2.85,4.532-3.786c1.836-0.842,3.999-1.421,6.497-1.749
			c2.493-0.311,5.194-0.561,8.072-0.707v-1.061c0-1.284-0.188-2.321-0.584-3.109c-0.389-0.794-0.931-1.408-1.637-1.836
			c-0.702-0.44-1.56-0.743-2.582-0.892c-1.009-0.141-2.048-0.221-3.128-0.221c-1.259,0-2.757,0.195-4.464,0.572
			c-1.728,0.382-3.444,0.93-5.153,1.65h-0.321v-5.585c1.007-0.288,2.458-0.615,4.363-0.969c1.884-0.346,3.756-0.526,5.605-0.526
			c2.246,0,4.144,0.18,5.68,0.526c1.543,0.354,2.925,0.985,4.149,1.908c1.191,0.901,2.076,2.059,2.672,3.474
			c0.58,1.433,0.872,3.165,0.872,5.211v22.369h-5.473V138.212z M790.946,133.645v-9.063c-1.298,0.105-2.956,0.273-4.956,0.475
			c-2,0.207-3.613,0.492-4.848,0.864c-1.459,0.45-2.669,1.14-3.622,2.066c-0.957,0.929-1.431,2.222-1.431,3.877
			c0,1.875,0.523,3.288,1.577,4.241c1.049,0.964,2.592,1.438,4.621,1.438c1.738,0,3.305-0.381,4.708-1.133
			C788.406,135.663,789.715,134.741,790.946,133.645z"/>
		<path fill="#C6C6C5" d="M805.309,146.937c0.367,0.149,0.912,0.368,1.637,0.626c0.725,0.266,1.539,0.518,2.452,0.752
			c1.021,0.248,1.952,0.458,2.812,0.614c0.86,0.146,1.801,0.229,2.809,0.229c1.698,0,3.134-0.215,4.315-0.668
			c1.183-0.449,2.101-1.075,2.762-1.874c0.628-0.8,1.063-1.722,1.321-2.782c0.251-1.054,0.383-2.257,0.383-3.604v-2.861
			c-1.485,1.279-2.943,2.235-4.357,2.847c-1.427,0.613-3.212,0.929-5.357,0.929c-3.73,0-6.693-1.384-8.898-4.16
			c-2.197-2.768-3.297-6.747-3.297-11.939c0-2.713,0.381-5.11,1.139-7.212c0.764-2.102,1.782-3.876,3.072-5.34
			c1.228-1.408,2.675-2.49,4.358-3.246c1.672-0.763,3.409-1.146,5.205-1.146c1.697,0,3.164,0.199,4.403,0.603
			c1.229,0.393,2.479,0.962,3.732,1.715l0.318-1.413h5.18v28.975c0,5.548-1.213,9.609-3.631,12.206
			c-2.42,2.596-6.109,3.894-11.081,3.894c-1.602,0-3.238-0.122-4.903-0.383c-1.668-0.259-3.223-0.599-4.668-1.019v-5.741H805.309z
			 M823.799,132.827v-17.939c-1.368-0.667-2.631-1.13-3.787-1.416c-1.164-0.292-2.321-0.426-3.476-0.426
			c-2.786,0-4.981,1.022-6.583,3.068c-1.591,2.054-2.394,4.988-2.394,8.813c0,3.633,0.608,6.385,1.821,8.279
			c1.221,1.896,3.196,2.838,5.928,2.838c1.428,0,2.892-0.273,4.402-0.846C821.225,134.639,822.584,133.85,823.799,132.827z"/>
		<path fill="#C6C6C5" d="M851.445,142.457c-5.211,0-9.252-1.467-12.131-4.41c-2.876-2.931-4.315-7.101-4.315-12.507
			c0-5.322,1.397-9.563,4.181-12.719c2.796-3.15,6.436-4.722,10.942-4.722c2.034,0,3.82,0.295,5.383,0.879
			c1.563,0.58,2.93,1.5,4.098,2.744c1.167,1.258,2.068,2.784,2.692,4.581c0.628,1.817,0.935,4.022,0.935,6.636v2.981h-22.645
			c0,3.811,0.963,6.717,2.871,8.728c1.913,2.004,4.547,3.009,7.928,3.009c1.203,0,2.392-0.133,3.555-0.411
			c1.158-0.268,2.206-0.614,3.142-1.052c0.991-0.45,1.833-0.888,2.515-1.301c0.69-0.416,1.247-0.813,1.7-1.186h0.317v6.004
			c-0.64,0.254-1.439,0.563-2.399,0.945c-0.954,0.374-1.809,0.68-2.568,0.895c-1.069,0.293-2.045,0.518-2.914,0.668
			C853.862,142.381,852.768,142.457,851.445,142.457z M857.877,121.703c-0.045-1.479-0.211-2.756-0.522-3.828
			c-0.323-1.08-0.765-1.978-1.353-2.725c-0.64-0.819-1.463-1.441-2.47-1.87c-1.006-0.433-2.249-0.639-3.729-0.639
			c-1.459,0-2.707,0.217-3.733,0.652c-1.022,0.437-1.953,1.079-2.792,1.921c-0.82,0.859-1.446,1.805-1.873,2.853
			c-0.43,1.039-0.7,2.259-0.82,3.637H857.877z"/>
		<path fill="#C6C6C5" d="M905.877,141.702v-18.909c0-1.507-0.055-2.896-0.169-4.17c-0.123-1.282-0.363-2.28-0.728-3.001
			c-0.396-0.781-0.954-1.362-1.667-1.729c-0.724-0.369-1.704-0.559-2.933-0.559c-1.127,0-2.34,0.352-3.637,1.044
			c-1.302,0.688-2.644,1.695-4.027,2.998c0.021,0.333,0.047,0.729,0.077,1.183c0.03,0.459,0.045,1.003,0.045,1.632v21.512h-5.496
			v-18.909c0-1.507-0.063-2.896-0.183-4.17c-0.115-1.282-0.362-2.28-0.733-3.001c-0.386-0.781-0.944-1.362-1.667-1.729
			c-0.724-0.369-1.694-0.559-2.925-0.559c-1.183,0-2.436,0.375-3.744,1.119c-1.31,0.733-2.569,1.688-3.801,2.834v24.415h-5.5
			v-32.698h5.5v3.637c1.44-1.449,2.866-2.566,4.282-3.355c1.413-0.793,2.972-1.187,4.667-1.187c1.927,0,3.647,0.435,5.139,1.323
			c1.488,0.872,2.623,2.317,3.405,4.328c1.655-1.86,3.278-3.264,4.857-4.221c1.582-0.953,3.299-1.43,5.143-1.43
			c1.407,0,2.685,0.219,3.837,0.654c1.146,0.446,2.153,1.146,3.014,2.127c0.879,0.997,1.557,2.236,2.028,3.714
			c0.483,1.484,0.721,3.345,0.721,5.596v21.512H905.877z"/>
		<path fill="#C6C6C5" d="M933.3,142.457c-5.211,0-9.25-1.467-12.126-4.41c-2.88-2.931-4.312-7.101-4.312-12.507
			c0-5.322,1.392-9.563,4.178-12.719c2.793-3.15,6.438-4.722,10.941-4.722c2.029,0,3.825,0.295,5.391,0.879
			c1.559,0.58,2.918,1.5,4.084,2.744c1.176,1.258,2.071,2.784,2.69,4.581c0.626,1.817,0.943,4.022,0.943,6.636v2.981h-22.646
			c0,3.811,0.959,6.717,2.866,8.728c1.916,2.004,4.56,3.009,7.933,3.009c1.203,0,2.392-0.133,3.556-0.411
			c1.158-0.268,2.199-0.614,3.14-1.052c1-0.45,1.836-0.888,2.521-1.301c0.682-0.416,1.24-0.813,1.688-1.186h0.33v6.004
			c-0.649,0.254-1.446,0.563-2.399,0.945c-0.958,0.374-1.823,0.68-2.576,0.895c-1.067,0.293-2.044,0.518-2.908,0.668
			C935.72,142.381,934.63,142.457,933.3,142.457z M939.74,121.703c-0.042-1.479-0.22-2.756-0.531-3.828
			c-0.313-1.08-0.763-1.978-1.348-2.725c-0.64-0.819-1.468-1.441-2.465-1.87c-1.011-0.433-2.257-0.639-3.735-0.639
			c-1.461,0-2.706,0.217-3.729,0.652c-1.027,0.437-1.96,1.079-2.792,1.921c-0.816,0.859-1.452,1.805-1.88,2.853
			c-0.43,1.039-0.697,2.259-0.816,3.637H939.74z"/>
		<path fill="#C6C6C5" d="M976.333,141.702h-5.5v-18.624c0-1.499-0.073-2.902-0.223-4.197c-0.137-1.291-0.424-2.329-0.831-3.122
			c-0.451-0.809-1.072-1.414-1.875-1.826c-0.798-0.396-1.886-0.599-3.276-0.599c-1.365,0-2.773,0.364-4.223,1.104
			c-1.452,0.721-2.878,1.676-4.258,2.849v24.415h-5.502v-32.698h5.502v3.637c1.642-1.468,3.262-2.592,4.854-3.368
			c1.601-0.788,3.284-1.174,5.064-1.174c3.221,0,5.732,1.062,7.55,3.177c1.811,2.11,2.718,5.179,2.718,9.199V141.702z"/>
		<path fill="#C6C6C5" d="M993.94,142.343c-2.999,0-5.337-0.862-7.021-2.565c-1.676-1.703-2.523-4.403-2.523-8.086v-18.123h-3.708
			v-4.564h3.708v-9.397h5.507v9.397h10.116v4.564h-10.116v15.545c0,1.654,0.025,2.938,0.088,3.834
			c0.061,0.902,0.279,1.731,0.666,2.513c0.337,0.684,0.874,1.197,1.621,1.536c0.729,0.344,1.737,0.52,3.007,0.52
			c0.894,0,1.765-0.137,2.606-0.395c0.835-0.274,1.438-0.488,1.806-0.668h0.322v4.949c-1.026,0.3-2.075,0.524-3.141,0.691
			C995.818,142.26,994.837,142.343,993.94,142.343z"/>
		<path fill="#C6C6C5" d="M558.113,214.263c-3.006,0-5.35-0.852-7.025-2.558c-1.676-1.711-2.516-4.41-2.516-8.089v-18.119h-3.711
			v-4.563h3.711v-9.402h5.498v9.402h10.125v4.563H554.07v15.542c0,1.649,0.026,2.932,0.098,3.829
			c0.054,0.899,0.269,1.732,0.668,2.519c0.335,0.688,0.87,1.192,1.607,1.538c0.735,0.343,1.745,0.513,3.011,0.513
			c0.898,0,1.763-0.137,2.604-0.397c0.839-0.265,1.448-0.478,1.817-0.66h0.32v4.946c-1.032,0.295-2.085,0.526-3.141,0.688
			C559.992,214.179,559.002,214.263,558.113,214.263z"/>
		<path fill="#C6C6C5" d="M585.582,186.844h-0.301c-0.409-0.122-0.84-0.192-1.294-0.222c-0.456-0.033-1.014-0.046-1.655-0.046
			c-1.48,0-2.957,0.328-4.413,0.968c-1.466,0.64-2.854,1.595-4.157,2.871v23.206h-5.499v-32.688h5.499v4.852
			c2.011-1.771,3.759-3.026,5.247-3.762c1.495-0.722,2.942-1.09,4.344-1.09c0.573,0,0.998,0.013,1.274,0.038
			c0.279,0.032,0.597,0.07,0.955,0.136V186.844z"/>
		<path fill="#C6C6C5" d="M607.085,210.131c-0.452,0.341-1.05,0.805-1.801,1.392c-0.75,0.6-1.478,1.077-2.182,1.425
			c-0.978,0.51-1.911,0.9-2.826,1.176c-0.898,0.269-2.173,0.405-3.814,0.405c-1.349,0-2.621-0.253-3.83-0.756
			c-1.214-0.511-2.276-1.229-3.188-2.143c-0.877-0.897-1.581-2.004-2.11-3.325c-0.525-1.314-0.791-2.699-0.791-4.17
			c0-2.268,0.485-4.187,1.441-5.78c0.95-1.589,2.462-2.852,4.525-3.791c1.835-0.83,4-1.418,6.5-1.739
			c2.491-0.317,5.187-0.56,8.076-0.71v-1.061c0-1.289-0.192-2.323-0.59-3.118c-0.388-0.788-0.93-1.4-1.636-1.818
			c-0.707-0.449-1.558-0.756-2.58-0.903c-1.01-0.136-2.057-0.218-3.126-0.218c-1.268,0-2.763,0.192-4.469,0.573
			c-1.727,0.38-3.443,0.926-5.155,1.651h-0.324v-5.591c1.018-0.288,2.465-0.614,4.361-0.961c1.896-0.349,3.768-0.529,5.612-0.529
			c2.243,0,4.143,0.181,5.681,0.529c1.543,0.347,2.924,0.987,4.153,1.896c1.189,0.906,2.075,2.062,2.663,3.486
			c0.586,1.428,0.877,3.162,0.877,5.205v22.364h-5.468V210.131z M607.085,205.572V196.5c-1.309,0.116-2.96,0.272-4.965,0.477
			c-1.993,0.204-3.608,0.498-4.842,0.872c-1.457,0.449-2.671,1.134-3.624,2.059c-0.952,0.928-1.434,2.223-1.434,3.885
			c0,1.871,0.521,3.285,1.583,4.243c1.052,0.953,2.587,1.429,4.622,1.429c1.735,0,3.298-0.375,4.706-1.126
			C604.534,207.582,605.853,206.671,607.085,205.572z"/>
		<path fill="#C6C6C5" d="M626.272,175.45h-6.26v-5.703h6.26V175.45z M625.894,213.621h-5.502v-32.688h5.502V213.621z"/>
		<path fill="#C6C6C5" d="M659.652,213.621h-5.5v-18.614c0-1.508-0.074-2.902-0.225-4.197c-0.144-1.306-0.425-2.338-0.829-3.124
			c-0.452-0.808-1.072-1.424-1.874-1.825c-0.801-0.401-1.89-0.598-3.275-0.598c-1.365,0-2.777,0.365-4.227,1.095
			c-1.452,0.729-2.873,1.688-4.259,2.856v24.407h-5.497v-32.688h5.497v3.628c1.644-1.461,3.265-2.594,4.858-3.37
			c1.592-0.775,3.283-1.173,5.062-1.173c3.216,0,5.731,1.063,7.538,3.175c1.819,2.114,2.73,5.191,2.73,9.201V213.621z"/>
		<path fill="#C6C6C5" d="M673.377,175.45h-6.256v-5.703h6.256V175.45z M672.996,213.621H667.5v-32.688h5.496V213.621z"/>
		<path fill="#C6C6C5" d="M706.75,213.621h-5.504v-18.614c0-1.508-0.07-2.902-0.214-4.197c-0.142-1.306-0.422-2.338-0.831-3.124
			c-0.451-0.808-1.078-1.424-1.881-1.825c-0.796-0.401-1.887-0.598-3.271-0.598c-1.37,0-2.771,0.365-4.227,1.095
			c-1.454,0.729-2.872,1.688-4.261,2.856v24.407h-5.501v-32.688h5.501v3.628c1.643-1.461,3.265-2.594,4.856-3.37
			c1.602-0.775,3.288-1.173,5.062-1.173c3.223,0,5.738,1.063,7.548,3.175c1.813,2.114,2.723,5.191,2.723,9.201V213.621z"/>
		<path fill="#C6C6C5" d="M715.644,218.857c0.369,0.155,0.923,0.362,1.64,0.632c0.723,0.263,1.535,0.513,2.458,0.742
			c1.011,0.259,1.954,0.466,2.813,0.611c0.857,0.16,1.792,0.243,2.805,0.243c1.692,0,3.136-0.226,4.313-0.674
			c1.189-0.45,2.097-1.079,2.77-1.868c0.615-0.808,1.063-1.733,1.314-2.782c0.257-1.064,0.379-2.262,0.379-3.604v-2.87
			c-1.482,1.289-2.936,2.234-4.352,2.855c-1.434,0.613-3.212,0.918-5.366,0.918c-3.716,0-6.688-1.378-8.886-4.156
			c-2.205-2.77-3.308-6.747-3.308-11.94c0-2.716,0.386-5.111,1.139-7.213c0.767-2.102,1.794-3.871,3.076-5.347
			c1.227-1.401,2.683-2.479,4.358-3.242c1.676-0.761,3.411-1.145,5.201-1.145c1.708,0,3.174,0.205,4.411,0.599
			c1.235,0.404,2.48,0.969,3.726,1.72l0.332-1.403h5.173V209.9c0,5.55-1.214,9.609-3.629,12.214
			c-2.419,2.592-6.119,3.886-11.087,3.886c-1.598,0-3.236-0.125-4.905-0.383c-1.662-0.251-3.22-0.592-4.666-1.023v-5.736H715.644z
			 M734.134,204.755v-17.947c-1.361-0.661-2.629-1.13-3.786-1.418c-1.159-0.281-2.316-0.422-3.469-0.422
			c-2.785,0-4.978,1.021-6.581,3.077c-1.595,2.049-2.399,4.978-2.399,8.812c0,3.625,0.609,6.394,1.828,8.274
			c1.221,1.895,3.195,2.846,5.927,2.846c1.419,0,2.887-0.286,4.4-0.853C731.566,206.561,732.932,205.768,734.134,204.755z"/>
		<path fill="#C6C6C5" d="M779.304,214.351c-2.239,0-4.305-0.351-6.177-1.043c-1.876-0.68-3.484-1.736-4.825-3.142
			c-1.347-1.403-2.392-3.176-3.127-5.31c-0.743-2.141-1.109-4.651-1.109-7.537c0-2.864,0.38-5.346,1.15-7.433
			c0.771-2.087,1.798-3.842,3.086-5.273c1.276-1.42,2.888-2.525,4.815-3.284c1.917-0.78,3.973-1.158,6.187-1.158
			c1.782,0,3.524,0.249,5.189,0.763c1.665,0.502,3.159,1.09,4.462,1.755v6.178h-0.324c-0.389-0.341-0.89-0.723-1.506-1.146
			c-0.613-0.438-1.361-0.875-2.234-1.321c-0.763-0.381-1.662-0.722-2.696-1.023c-1.033-0.284-2.025-0.436-2.985-0.436
			c-2.847,0-5.128,1.078-6.86,3.231c-1.722,2.153-2.581,5.208-2.581,9.147c0,3.863,0.831,6.871,2.499,9.03
			c1.663,2.161,3.985,3.229,6.942,3.229c1.798,0,3.502-0.368,5.122-1.112c1.62-0.733,3.053-1.69,4.3-2.861h0.324v6.176
			c-0.543,0.245-1.229,0.563-2.047,0.912c-0.82,0.368-1.561,0.633-2.229,0.807c-0.927,0.277-1.77,0.489-2.507,0.637
			C781.421,214.275,780.469,214.351,779.304,214.351z"/>
		<path fill="#C6C6C5" d="M820.834,197.291c0,5.508-1.322,9.746-3.973,12.744c-2.654,2.998-6.184,4.493-10.59,4.493
			c-4.537,0-8.117-1.551-10.717-4.642c-2.61-3.097-3.914-7.294-3.914-12.596c0-5.466,1.344-9.707,4.029-12.729
			c2.676-3.027,6.219-4.543,10.602-4.543c4.406,0,7.936,1.516,10.59,4.531C819.512,187.557,820.834,191.813,820.834,197.291z
			 M815.17,197.291c0-4.241-0.771-7.383-2.312-9.435c-1.539-2.063-3.741-3.094-6.587-3.094c-2.865,0-5.079,1.031-6.625,3.094
			c-1.553,2.052-2.332,5.193-2.332,9.435c0,4.096,0.779,7.203,2.332,9.322c1.546,2.116,3.76,3.178,6.625,3.178
			c2.826,0,5.02-1.041,6.573-3.12C814.391,204.599,815.17,201.462,815.17,197.291z"/>
		<path fill="#C6C6C5" d="M863.58,213.621v-18.907c0-1.497-0.058-2.889-0.179-4.17c-0.114-1.282-0.361-2.278-0.727-3
			c-0.394-0.778-0.95-1.357-1.673-1.73c-0.724-0.368-1.695-0.551-2.922-0.551c-1.13,0-2.342,0.347-3.645,1.04
			c-1.301,0.69-2.635,1.692-4.028,2.997c0.023,0.329,0.049,0.724,0.075,1.188c0.036,0.457,0.05,0.995,0.05,1.626v21.507h-5.498
			v-18.907c0-1.497-0.061-2.889-0.181-4.17c-0.109-1.282-0.366-2.278-0.732-3c-0.385-0.778-0.938-1.357-1.668-1.73
			c-0.725-0.368-1.692-0.551-2.925-0.551c-1.182,0-2.439,0.377-3.744,1.11c-1.303,0.739-2.568,1.69-3.805,2.841v24.407h-5.497
			v-32.688h5.497v3.628c1.447-1.445,2.877-2.563,4.289-3.358c1.417-0.787,2.974-1.185,4.665-1.185c1.928,0,3.646,0.442,5.137,1.323
			c1.491,0.871,2.632,2.317,3.413,4.336c1.646-1.862,3.271-3.269,4.851-4.22c1.582-0.965,3.303-1.439,5.144-1.439
			c1.409,0,2.683,0.218,3.84,0.664c1.146,0.44,2.149,1.145,3.017,2.114c0.877,0.997,1.551,2.243,2.026,3.724
			c0.485,1.488,0.717,3.34,0.717,5.594v21.507H863.58z"/>
		<path fill="#C6C6C5" d="M904.216,196.413c0,5.442-1.301,9.781-3.903,13.007c-2.607,3.235-5.89,4.843-9.869,4.843
			c-1.624,0-3.061-0.179-4.302-0.559c-1.253-0.368-2.532-0.94-3.844-1.719v13.699h-5.491v-44.751h5.491v3.42
			c1.371-1.225,2.892-2.266,4.558-3.085c1.671-0.836,3.487-1.25,5.454-1.25c3.737,0,6.661,1.487,8.767,4.449
			C903.167,187.435,904.216,191.418,904.216,196.413z M898.545,197.025c0-3.73-0.598-6.618-1.787-8.678
			c-1.188-2.059-3.123-3.085-5.798-3.085c-1.559,0-3.066,0.347-4.519,1.04c-1.447,0.69-2.832,1.579-4.144,2.672v18.524
			c1.456,0.711,2.687,1.188,3.71,1.439c1.021,0.254,2.194,0.381,3.521,0.381c2.847,0,5.061-1.04,6.643-3.125
			C897.754,204.098,898.545,201.047,898.545,197.025z"/>
		<path fill="#C6C6C5" d="M928.179,210.131c-0.449,0.341-1.05,0.805-1.806,1.392c-0.75,0.6-1.47,1.077-2.173,1.425
			c-0.981,0.51-1.915,0.9-2.829,1.176c-0.907,0.269-2.17,0.405-3.816,0.405c-1.345,0-2.621-0.253-3.824-0.756
			c-1.216-0.511-2.279-1.229-3.189-2.143c-0.879-0.897-1.582-2.004-2.114-3.325c-0.526-1.314-0.789-2.699-0.789-4.17
			c0-2.268,0.481-4.187,1.429-5.78c0.965-1.589,2.475-2.852,4.537-3.791c1.834-0.83,4-1.418,6.493-1.739
			c2.503-0.317,5.192-0.56,8.082-0.71v-1.061c0-1.289-0.199-2.323-0.59-3.118c-0.39-0.788-0.929-1.4-1.631-1.818
			c-0.711-0.449-1.559-0.756-2.581-0.903c-1.008-0.136-2.059-0.218-3.123-0.218c-1.273,0-2.766,0.192-4.482,0.573
			c-1.716,0.38-3.433,0.926-5.151,1.651h-0.319v-5.591c1.016-0.288,2.467-0.614,4.361-0.961c1.886-0.349,3.769-0.529,5.618-0.529
			c2.239,0,4.131,0.181,5.678,0.529c1.537,0.347,2.924,0.987,4.148,1.896c1.19,0.906,2.078,2.062,2.665,3.486
			c0.587,1.428,0.877,3.162,0.877,5.205v22.364h-5.47V210.131z M928.179,205.572V196.5c-1.306,0.116-2.965,0.272-4.968,0.477
			c-1.99,0.204-3.604,0.498-4.834,0.872c-1.47,0.449-2.671,1.134-3.623,2.059c-0.962,0.928-1.434,2.223-1.434,3.885
			c0,1.871,0.516,3.285,1.581,4.243c1.049,0.953,2.587,1.429,4.616,1.429c1.731,0,3.301-0.375,4.706-1.126
			C925.631,207.582,926.944,206.671,928.179,205.572z"/>
		<path fill="#C6C6C5" d="M967.046,213.621h-5.501v-18.614c0-1.508-0.074-2.902-0.213-4.197c-0.142-1.306-0.425-2.338-0.836-3.124
			c-0.447-0.808-1.066-1.424-1.87-1.825c-0.797-0.401-1.899-0.598-3.278-0.598c-1.366,0-2.776,0.365-4.223,1.095
			c-1.459,0.729-2.875,1.688-4.265,2.856v24.407h-5.501v-32.688h5.501v3.628c1.642-1.461,3.262-2.594,4.855-3.37
			c1.6-0.775,3.29-1.173,5.064-1.173c3.223,0,5.734,1.063,7.546,3.175c1.822,2.114,2.72,5.191,2.72,9.201V213.621z"/>
		<path fill="#C6C6C5" d="M999.93,180.934l-17.58,44.751h-5.881l5.852-13.645l-11.875-31.106h5.938l8.921,24.197l8.89-24.197H999.93
			z"/>
	</g>
	<g>
		<path fill="#C6C6C5" d="M578.313,33.507l0.007,0.088h-9.77c-21.879-0.088-57.984,7.524-71.462,53.458l-8.661,29.39l-7.763,25.853
			c-7.865,23.533-15.666,37.036-51.105,37.036h-9.273c-25.607-0.206-20.765,38.367-20.765,38.367l40.952-0.042l1.875-0.041
			c23.547-1.167,58.895-7.771,72.378-53.709c3.936-13.436,16.417-55.235,16.417-55.235c7.862-23.542,15.588-37.262,51.029-37.262
			c0,0,20.863,0,40.277,0c27.499,0,20.834-37.902,20.834-37.902H578.313z"/>
		<path fill="#C6C6C5" d="M300.773,33.357h-0.021H260.31c-21.882-0.09-58.003,7.264-71.484,53.197l-16.422,55.25
			c-7.862,23.525-15.59,37.255-51.024,37.255c0,0-20.86,0-40.27,0c-27.504,0-21.172,38.639-21.172,38.639h64.97h9.761
			c21.878,0.081,58.321-8.352,71.793-54.282c3.942-13.435,14.101-47.468,14.101-47.468l2.325-7.781
			c7.867-23.527,8.075-36.601,43.511-36.601c0,0,14.368,0,20.82,0h52.229l-45.496,146.132h44.825l45.493-146.132h79.753l0,0
			c0.151,0,0.258-0.005,0.258-0.005c27.512,0,27.583-38.204,27.583-38.204H300.773z"/>
		<g>
			<path fill="#A81715" d="M0.019,114.092h16.962c29.454,0,36.283-10.879,43.498-29.657l15.265-44.025
				C84.612,14.517,102.321,3.981,118.362,0H85.69C32.423,0,32.481,18.709,20.623,50.996C20.623,50.996,5.213,98.078,0.019,114.092z"
				/>
			<path fill="#A81715" d="M140.513,27.992c-29.474,0-29.838,10.87-37.078,29.65l-2.137,6.201
				c-4.668,13.347-9.445,27.122-13.13,37.827c-10.533,30.788-33.599,39.992-51.486,42.09h53.911c15.155,0,33.383-3.008,42.652-24.49
				l31.126-91.278H140.513z"/>
		</g>
	</g>
</g>
</svg>
